<?xml version="1.0" encoding="iso-8859-1"?>
<!-- Generator: Adobe Illustrator 19.0.0, SVG Export Plug-In . SVG Version: 6.00 Build 0)  -->
<svg version="1.1" id="Layer_1" xmlns="http://www.w3.org/2000/svg" xmlns:xlink="http://www.w3.org/1999/xlink" x="0px" y="0px"
	 viewBox="0 0 512 512" style="enable-background:new 0 0 512 512;" xml:space="preserve">
<path style="fill:#CCCCCC;" d="M449.971,232.474v195.031H71.056H35.534c-9.817,0-18.701-3.975-25.13-10.404
	C3.975,410.672,0,401.788,0,391.971c0-19.623,71.056-264.099,71.056-264.099h378.915v38.527V232.474z"/>
<polygon style="fill:#F7B239;" points="143.274,123.657 143.274,80.916 143.274,43.202 198.945,43.202 198.945,127.871 
	198.945,332.324 143.274,332.324 143.274,294.611 143.274,251.87 143.274,209.128 143.274,166.387 143.274,127.871 "/>
<g>
	<rect x="143.274" y="71.942" style="fill:#B27214;" width="21.55" height="17.959"/>
	<rect x="143.274" y="200.155" style="fill:#B27214;" width="21.55" height="17.959"/>
	<rect x="143.274" y="157.401" style="fill:#B27214;" width="21.55" height="17.959"/>
	<rect x="143.274" y="114.672" style="fill:#B27214;" width="21.55" height="17.959"/>
	<rect x="143.274" y="285.626" style="fill:#B27214;" width="21.55" height="17.959"/>
	<rect x="143.274" y="242.884" style="fill:#B27214;" width="21.55" height="17.959"/>
</g>
<g>
	<path style="fill:#F95428;" d="M477.184,199.43h0.419c0,11.326-2.574,22.628-7.722,33.044h-19.91H336.748v-0.012
		c4.549-10.536-4.25-21.778-4.25-33.032L477.184,199.43L477.184,199.43z"/>
	<path style="fill:#F95428;" d="M332.498,199.43c0-11.242,8.8-22.484,4.25-33.02v-0.012h113.223h19.91
		c5.148,10.404,7.722,21.73,7.722,33.032h-0.419H332.498z"/>
</g>
<rect x="332.498" y="193.438" style="fill:#E54728;" width="155.773" height="11.972"/>
<path style="fill:#2BA5F7;" d="M504.278,166.399c5.148,10.404,7.722,21.73,7.722,33.032c0,11.326-2.574,22.628-7.722,33.044h-37.988
	c5.148-10.416,7.722-21.718,7.722-33.044c0-11.302-2.574-22.628-7.722-33.032H504.278z"/>
<path style="fill:#F95428;" d="M313.629,181.903c3.376,5.004,18.868,11.039,18.868,17.528c0,6.501-15.48,12.523-18.868,17.54
	l-26.16-17.54L313.629,181.903z"/>
<path style="fill:#F2F2F2;" d="M336.748,166.41c4.549,10.536,6.836,21.778,6.836,33.02c0,11.254-2.287,22.496-6.836,33.032v0.012
	l-23.119-15.504c3.388-5.016,5.34-11.039,5.34-17.54c0-6.489-1.963-12.523-5.34-17.528l23.119-15.504V166.41z"/>
<path style="fill:#E6E6E6;" d="M71.056,127.871v228.565H35.534C15.911,356.437,0,372.348,0,391.971V92.337
	c0-4.897,0.994-9.578,2.79-13.828s4.406-8.081,7.614-11.302c6.429-6.429,15.313-10.404,25.13-10.404h35.522V127.871z"/>
<path style="fill:#2BA5F7;" d="M442.345,468.798H238.826v-42.544V265.279l160.975,160.975L442.345,468.798z M273.365,434.258h85.594
	l-85.594-85.594V434.258z"/>
<g>
</g>
<g>
</g>
<g>
</g>
<g>
</g>
<g>
</g>
<g>
</g>
<g>
</g>
<g>
</g>
<g>
</g>
<g>
</g>
<g>
</g>
<g>
</g>
<g>
</g>
<g>
</g>
<g>
</g>
</svg>
