<?xml version="1.0" encoding="iso-8859-1"?>
<!-- Generator: Adobe Illustrator 19.0.0, SVG Export Plug-In . SVG Version: 6.00 Build 0)  -->
<svg version="1.1" id="Layer_1" xmlns="http://www.w3.org/2000/svg" xmlns:xlink="http://www.w3.org/1999/xlink" x="0px" y="0px"
	 viewBox="0 0 512 512" style="enable-background:new 0 0 512 512;" xml:space="preserve">
<path style="fill:#0F7986;" d="M512,256.001C512,114.615,397.387,0,255.999,0C114.615,0,0,114.615,0,256.001
	S114.615,512,255.999,512C397.387,512,512,397.385,512,256.001z"/>
<path style="fill:#4D4D4D;" d="M79.027,20.989h187.924c2.959,0,5.37,2.41,5.37,5.37v360.959c0,2.959-2.41,5.37-5.37,5.37H79.027
	c-2.956,0-5.37-2.41-5.37-5.37V26.359C73.657,23.4,76.07,20.989,79.027,20.989z"/>
<path style="fill:#FAD24D;" d="M87.263,71.149h171.451c2.296,0,4.168,1.878,4.168,4.171v263.033c0,2.293-1.872,4.171-4.168,4.171
	H87.263c-2.296,0-4.168-1.878-4.168-4.171V75.32C83.095,73.027,84.97,71.149,87.263,71.149z"/>
<g>
	<path style="fill:#828282;" d="M127.861,43.935h90.243c2.064,0,3.749,1.695,3.749,3.751c0,2.059-1.684,3.754-3.749,3.754h-90.243
		c-2.062,0-3.751-1.695-3.751-3.754S125.8,43.935,127.861,43.935z"/>
	<path style="fill:#828282;" d="M172.988,355.008c7.292,0,13.207,5.914,13.207,13.207c0,7.292-5.914,13.207-13.207,13.207
		c-7.295,0-13.209-5.914-13.209-13.207C159.779,360.919,165.693,355.008,172.988,355.008z"/>
</g>
<path style="fill:#FFFFFF;" d="M430.194,71.149H192.918v381.639h237.276V71.149z"/>
<path style="fill:#21D0C3;" d="M430.194,71.149H192.918v26.328h237.276V71.149z"/>
<g>
	<path style="fill:#FFFFFF;" d="M360.263,78.47H205.527c-3.213,0-5.844,2.628-5.844,5.842c0,3.213,2.631,5.844,5.844,5.844h154.737
		c3.216,0,5.847-2.628,5.847-5.844C366.11,81.099,363.479,78.47,360.263,78.47z"/>
	<path style="fill:#FFFFFF;" d="M380.272,79.32c2.755,0,4.991,2.235,4.991,4.994c0,2.755-2.235,4.991-4.991,4.991
		c-2.76,0-4.994-2.235-4.994-4.991C375.278,81.558,377.513,79.32,380.272,79.32z"/>
	<path style="fill:#FFFFFF;" d="M398.951,79.32c2.757,0,4.991,2.235,4.991,4.994c0,2.755-2.235,4.991-4.991,4.991
		c-2.757,0-4.991-2.235-4.991-4.991C393.96,81.558,396.194,79.32,398.951,79.32z"/>
	<path style="fill:#FFFFFF;" d="M417.631,79.32c2.757,0,4.991,2.235,4.991,4.994c0,2.755-2.235,4.991-4.991,4.991
		c-2.757,0-4.991-2.235-4.991-4.991C412.64,81.558,414.875,79.32,417.631,79.32z"/>
</g>
<g>
	<path style="fill:#ECF0F1;" d="M207.795,113.165h101.886v120.226H207.795V113.165z"/>
	<path style="fill:#ECF0F1;" d="M322.249,210.806h49.234v4.714h-49.234V210.806z M239.909,404.734L239.909,404.734h143.295v4.716
		H239.909V404.734z M222.243,385.209L222.243,385.209h178.63v4.716h-178.63V385.209z M222.243,365.683L222.243,365.683h178.63v4.716
		h-178.63V365.683z M207.795,324.237L207.795,324.237h178.63v4.716h-178.63V324.237z M207.795,304.711L207.795,304.711h178.63v4.716
		h-178.63V304.711z M207.795,285.185L207.795,285.185H351.09v4.716H207.795V285.185z M207.795,265.659L207.795,265.659h178.63v4.716
		h-178.63V265.659z M207.795,246.133L207.795,246.133h178.63v4.716h-178.63V246.133z M322.249,113.175L322.249,113.175h87.622v4.716
		h-87.622V113.175z M322.249,132.701L322.249,132.701h87.622v4.716h-87.622V132.701z M322.249,152.227L322.249,152.227h70.289v4.716
		h-70.289V152.227z M322.249,171.753L322.249,171.753h87.622v4.716h-87.622V171.753z M322.249,191.278L322.249,191.278h87.622v4.716
		h-87.622V191.278z"/>
</g>
<path style="fill:#21D0C3;" d="M261.374,343.763h100.367v4.716H261.374V343.763z"/>
<path style="fill:#FED198;" d="M437.304,231.303L437.304,231.303c-7.116-0.701-11.698,4.978-13.973,11.769l-14.106,42.157
	l-6.602-6.138l-13.112-17.178l-22.943-40.714l-23.269-40.972c-3.646-6.415-11.84-8.953-18.052-5.241
	c-6.209,3.709-8.509,11.706-4.878,18.128l39.78,70.321l-2.935,1.899l-8.585-16.803c-3.357-6.568-11.746-8.782-18.049-5.244
	c-6.301,3.549-8.234,11.564-4.881,18.133l9.333,18.258l-3.32,2.151l-5.821-11.888c-3.242-6.62-11.84-8.95-18.044-5.241
	c-6.211,3.712-8.121,11.508-4.878,18.133l6.539,13.362l-3.982,2.578l-3.612-6.668c-3.509-6.481-11.835-8.948-18.044-5.241
	c-6.211,3.712-8.391,11.646-4.881,18.131l7.48,13.813l1.057,2.476l46.226,71.026c6.269,9.639,15.161,15.659,22.324,17.942
	c2.051,0.653,3.958,1.002,5.626,1.039l43.236,74.625l81.038-45.811l-52.24-75.847c12.63-19.033,13.438-93.106,15.471-118.641
	c0.569-7.171-4.787-13.608-11.898-14.306L437.304,231.303z"/>
<path style="fill:#F0B97D;" d="M479.519,443.746l6.452-3.646l-52.24-75.847c12.632-19.033,13.438-93.106,15.471-118.641
	c0.102-1.285,0.013-2.55-0.243-3.759c-5.228,35.823-5.933,101.933-20.575,122.535l51.133,79.362L479.519,443.746z"/>
<path style="fill:#FF5B62;" d="M467.986,399.16l-91.454,53.189l19.379,38.663l96.254-54.415l-24.179-37.441V399.16z"/>
<g>
	<path style="fill:#ECF0F1;" d="M455.505,384.199l-86.132,49.514l9.973,16.882l86.132-49.512L455.505,384.199z"/>
	<path style="fill:#ECF0F1;" d="M395.813,455.81c-4.716,2.757-6.317,8.787-3.58,13.475c2.736,4.688,8.777,6.254,13.491,3.502
		c4.714-2.757,6.317-8.79,3.583-13.48C406.568,454.621,400.527,453.055,395.813,455.81z"/>
</g>
<path style="fill:#FFFFFF;" d="M322.225,189.841l5.579,10.143l15.384-8.69l-5.574-10.148c-4.388-7.987-20.494,1.233-15.387,8.695
	H322.225z M428.304,240.609L428.304,240.609l-3.365,13.47l17.254,4.574l3.365-13.469
	C447.746,236.428,430.471,231.927,428.304,240.609z"/>
<path style="fill:#21D0C3;" d="M77.505,163.849c28.612,0,51.805,23.196,51.805,51.805s-23.193,51.805-51.805,51.805
	c-28.609,0-51.802-23.196-51.802-51.805S48.898,163.849,77.505,163.849z"/>
<g>
	<path style="fill:#FFFFFF;" d="M77.505,163.642c14.364,0,27.366,5.823,36.777,15.232c9.409,9.409,15.232,22.413,15.232,36.777
		c0,14.361-5.823,27.366-15.232,36.777c-9.409,9.409-22.413,15.232-36.777,15.232c-14.361,0-27.366-5.823-36.777-15.232
		c-9.409-9.412-15.232-22.416-15.232-36.777c0-14.364,5.823-27.366,15.232-36.777C50.139,169.465,63.144,163.642,77.505,163.642z
		 M118.209,242.534L118.209,242.534c0.291,0.158,0.49,0.42,0.572,0.714c5.081-7.58,8.126-16.641,8.36-26.4H107.46
		c-0.155,7.132-1.569,14.243-4.244,20.903C109.231,238.896,114.442,240.488,118.209,242.534z M117.739,244.746L117.739,244.746
		c-0.221,0.021-0.448-0.024-0.656-0.139c-3.678-1.993-8.835-3.541-14.812-4.643c-0.538,1.194-1.118,2.368-1.739,3.528
		c-4.677,8.701-11.72,16.326-21.123,21.771c12.953-0.488,24.638-5.941,33.205-14.506
		C114.476,248.896,116.192,246.884,117.739,244.746z M75.603,265.266L75.603,265.266c-9.399-5.445-16.441-13.067-21.121-21.771
		c-0.619-1.154-1.196-2.324-1.734-3.512c-5.967,1.102-11.127,2.644-14.831,4.624c-0.208,0.11-0.433,0.152-0.648,0.137
		c1.548,2.141,3.263,4.15,5.128,6.014c8.567,8.564,20.252,14.018,33.205,14.506V265.266z M36.234,243.256L36.234,243.256
		c0.081-0.299,0.283-0.561,0.58-0.719c3.791-2.033,8.997-3.62,14.993-4.764c-2.681-6.665-4.1-13.784-4.252-20.924H27.875
		c0.231,9.758,3.282,18.82,8.363,26.403L36.234,243.256z M27.873,214.492L27.873,214.492H47.55
		c0.137-7.722,1.75-15.413,4.845-22.532c-6.211-1.144-11.612-2.76-15.523-4.837C31.403,194.898,28.108,204.317,27.873,214.492z
		 M38.285,185.208L38.285,185.208c3.812,1.959,9.07,3.478,15.121,4.551c0.372-0.766,0.764-1.527,1.17-2.277
		c4.677-8.59,11.677-16.095,21.003-21.44c-12.948,0.496-24.62,5.943-33.184,14.506C40.932,182.014,39.558,183.569,38.285,185.208z
		 M79.428,166.043L79.428,166.043c9.328,5.346,16.328,12.85,21.003,21.44c0.412,0.759,0.802,1.524,1.181,2.296
		c6.062-1.076,11.321-2.597,15.111-4.569c-1.275-1.64-2.647-3.195-4.11-4.661C104.05,171.986,92.373,166.538,79.428,166.043z
		 M118.143,187.127L118.143,187.127c-3.884,2.093-9.288,3.712-15.518,4.856c3.09,7.114,4.701,14.799,4.837,22.511h19.678
		C126.907,204.32,123.613,194.903,118.143,187.127z M78.688,168.335L78.688,168.335v23.36c7.108-0.047,14.172-0.556,20.496-1.519
		c-0.264-0.527-0.538-1.049-0.821-1.569c-4.401-8.087-10.959-15.171-19.678-20.273h0.003V168.335z M78.688,194.056L78.688,194.056
		v20.436h26.424c-0.139-7.583-1.766-15.14-4.876-22.102C93.592,193.453,86.156,194.006,78.688,194.056z M78.688,216.852
		L78.688,216.852v18.717c7.699,0.05,15.358,0.638,22.154,1.763c2.684-6.51,4.108-13.485,4.263-20.481H78.685L78.688,216.852
		L78.688,216.852z M78.688,237.931L78.688,237.931v25.029c8.772-5.194,15.363-12.389,19.767-20.58
		c0.498-0.928,0.97-1.87,1.411-2.822c-6.5-1.036-13.813-1.577-21.181-1.626h0.002V237.931z M76.327,262.96L76.327,262.96v-25.029
		c-7.358,0.058-14.668,0.603-21.176,1.642c0.441,0.947,0.91,1.886,1.406,2.807C60.962,250.572,67.553,257.77,76.327,262.96z
		 M76.327,235.571L76.327,235.571v-18.717H49.909c0.158,7.003,1.582,13.986,4.273,20.502c6.802-1.131,14.458-1.726,22.149-1.784
		L76.327,235.571L76.327,235.571z M76.327,214.492L76.327,214.492v-20.438c-7.459-0.058-14.894-0.617-21.54-1.682
		c-3.119,6.964-4.748,14.529-4.884,22.12H76.327z M76.327,191.696L76.327,191.696v-23.36c-8.719,5.102-15.279,12.186-19.681,20.273
		c-0.278,0.514-0.548,1.031-0.81,1.553C62.171,191.126,69.224,191.641,76.327,191.696z"/>
	<path style="fill:#FFFFFF;" d="M136.129,252.714l18.245,3.565l1.408,0.272l-0.433,1.372l-6.046,19.03l-2.437-0.773l4.889-15.384
		c-3.578,2.431-7.549,4.758-11.817,6.916c-16.769,8.482-38.22,14.379-58.892,13.589c-20.805-0.794-40.824-8.347-54.569-26.787
		c-2.418-3.25-4.648-6.844-6.644-10.789l2.288-1.152c1.93,3.814,4.079,7.282,6.415,10.416
		c13.209,17.726,32.514,24.987,52.599,25.756c20.216,0.772,41.216-5.007,57.651-13.322c4.435-2.243,8.535-4.669,12.189-7.2
		l-15.337-2.993l0.49-2.515V252.714z"/>
</g>
<path style="fill:#828282;" d="M99.578,43.18c2.61,0,4.724,2.117,4.724,4.727c0,2.613-2.114,4.724-4.724,4.724
	c-2.61,0-4.724-2.112-4.724-4.724C94.854,45.297,96.968,43.18,99.578,43.18z"/>
<g>
</g>
<g>
</g>
<g>
</g>
<g>
</g>
<g>
</g>
<g>
</g>
<g>
</g>
<g>
</g>
<g>
</g>
<g>
</g>
<g>
</g>
<g>
</g>
<g>
</g>
<g>
</g>
<g>
</g>
</svg>
